<?xml version="1.0" encoding="UTF-8" standalone="no"?>
<!DOCTYPE svg PUBLIC "-//W3C//DTD SVG 1.1//EN" "http://www.w3.org/Graphics/SVG/1.1/DTD/svg11.dtd">
<svg width="100%" height="100%" viewBox="0 0 128 128" version="1.1" xmlns="http://www.w3.org/2000/svg" xmlns:xlink="http://www.w3.org/1999/xlink" xml:space="preserve" xmlns:serif="http://www.serif.com/" style="fill-rule:evenodd;clip-rule:evenodd;stroke-linejoin:round;stroke-miterlimit:2;">
    <g transform="matrix(0.992337,0,0,0.979584,0.487302,0.654724)">
        <path d="M63.593,0.163C98.781,0.163 127.349,28.757 127.349,63.976C127.349,99.196 98.781,127.79 63.593,127.79C28.405,127.79 -0.163,99.196 -0.163,63.976C-0.163,28.757 28.405,0.163 63.593,0.163ZM63.593,12.785C91.82,12.785 114.738,35.723 114.738,63.976C114.738,92.23 91.82,115.167 63.593,115.167C35.365,115.167 12.448,92.23 12.448,63.976C12.448,35.723 35.365,12.785 63.593,12.785Z" style="fill:rgb(235,235,235);"/>
    </g>
    <g transform="matrix(0.58401,0,0,0.58401,4.8901,42.9354)">
        <g transform="matrix(70.9319,0,0,70.9319,27.8473,82.192)">
            <path d="M0.108,-0.763L0.388,-0.763C0.47,-0.763 0.541,-0.754 0.601,-0.737C0.661,-0.719 0.711,-0.694 0.751,-0.661C0.79,-0.629 0.82,-0.589 0.839,-0.542C0.858,-0.496 0.868,-0.443 0.868,-0.385C0.868,-0.329 0.859,-0.278 0.839,-0.231C0.82,-0.184 0.791,-0.143 0.751,-0.109C0.712,-0.075 0.662,-0.048 0.602,-0.029C0.542,-0.009 0.471,0 0.389,0L0.108,0L0.108,-0.763ZM0.426,-0.134C0.472,-0.134 0.513,-0.14 0.548,-0.152C0.583,-0.163 0.612,-0.18 0.635,-0.202C0.658,-0.224 0.676,-0.25 0.688,-0.281C0.699,-0.312 0.705,-0.347 0.705,-0.385C0.705,-0.422 0.699,-0.456 0.688,-0.486C0.676,-0.516 0.658,-0.542 0.635,-0.563C0.612,-0.584 0.583,-0.6 0.548,-0.611C0.513,-0.623 0.472,-0.628 0.426,-0.628L0.263,-0.628L0.263,-0.134L0.426,-0.134Z" style="fill:rgb(170,170,170);fill-rule:nonzero;"/>
        </g>
        <g transform="matrix(70.9319,0,0,70.9319,92.7528,82.192)">
            <path d="M0.01,-0.763L0.179,-0.763L0.386,-0.271L0.434,-0.151L0.471,-0.271L0.547,-0.45L0.41,-0.763L0.569,-0.763L0.625,-0.614L0.678,-0.763L0.837,-0.763L0.7,-0.45L0.777,-0.267L0.824,-0.151L0.86,-0.269L1.068,-0.763L1.237,-0.763L0.9,0L0.747,0L0.679,-0.151L0.624,-0.298L0.569,-0.151L0.5,0L0.347,0L0.01,-0.763Z" style="fill:rgb(170,170,170);fill-rule:nonzero;"/>
        </g>
    </g>
    <g transform="matrix(0.546872,0,0,0.546872,-469.603,-114.726)">
        <circle cx="900.322" cy="280.786" r="3.556" style="fill:rgb(128,128,128);"/>
    </g>
    <g transform="matrix(0.546872,0,0,0.546872,-463.578,-112.284)">
        <circle cx="900.322" cy="280.786" r="3.556" style="fill:rgb(128,128,128);"/>
    </g>
    <g transform="matrix(0.546872,0,0,0.546872,-457.389,-113.261)">
        <circle cx="900.322" cy="280.786" r="3.556" style="fill:rgb(128,128,128);"/>
    </g>
    <g transform="matrix(0.546872,0,0,0.546872,-451.853,-116.355)">
        <circle cx="900.322" cy="280.786" r="3.556" style="fill:rgb(128,128,128);"/>
    </g>
    <g transform="matrix(0.546872,0,0,0.546872,-446.641,-119.937)">
        <circle cx="900.322" cy="280.786" r="3.556" style="fill:rgb(128,128,128);"/>
    </g>
    <g transform="matrix(0.546872,0,0,0.546872,-441.43,-122.706)">
        <circle cx="900.322" cy="280.786" r="3.556" style="fill:rgb(128,128,128);"/>
    </g>
    <g transform="matrix(0.546872,0,0,0.546872,-435.568,-124.334)">
        <circle cx="900.322" cy="280.786" r="3.556" style="fill:rgb(128,128,128);"/>
    </g>
    <g transform="matrix(0.546872,0,0,0.546872,-429.542,-124.009)">
        <circle cx="900.322" cy="280.786" r="3.556" style="fill:rgb(128,128,128);"/>
    </g>
    <g transform="matrix(0.546872,0,0,0.546872,-423.028,-122.869)">
        <circle cx="900.322" cy="280.786" r="3.556" style="fill:rgb(128,128,128);"/>
    </g>
    <g transform="matrix(0.546872,0,0,0.546872,-416.84,-120.589)">
        <circle cx="900.322" cy="280.786" r="3.556" style="fill:rgb(128,128,128);"/>
    </g>
    <g transform="matrix(0.546872,0,0,0.546872,-411.466,-117.658)">
        <circle cx="900.322" cy="280.786" r="3.556" style="fill:rgb(128,128,128);"/>
    </g>
    <g transform="matrix(0.546872,0,0,0.546872,-405.929,-115.541)">
        <circle cx="900.322" cy="280.786" r="3.556" style="fill:rgb(128,128,128);"/>
    </g>
    <g transform="matrix(0.546872,0,0,0.546872,-400.392,-114.563)">
        <circle cx="900.322" cy="280.786" r="3.556" style="fill:rgb(128,128,128);"/>
    </g>
    <g transform="matrix(0.546872,0,0,0.546872,-394.041,-114.726)">
        <circle cx="900.322" cy="280.786" r="3.556" style="fill:rgb(128,128,128);"/>
    </g>
    <g transform="matrix(0.546872,0,0,0.546872,-388.504,-116.843)">
        <circle cx="900.322" cy="280.786" r="3.556" style="fill:rgb(128,128,128);"/>
    </g>
</svg>
