<?xml version="1.0" encoding="UTF-8" standalone="no"?>
<!DOCTYPE svg PUBLIC "-//W3C//DTD SVG 1.1//EN" "http://www.w3.org/Graphics/SVG/1.1/DTD/svg11.dtd">
<svg width="100%" height="100%" viewBox="0 0 64 64" version="1.1" xmlns="http://www.w3.org/2000/svg" xmlns:xlink="http://www.w3.org/1999/xlink" xml:space="preserve" xmlns:serif="http://www.serif.com/" style="fill-rule:evenodd;clip-rule:evenodd;stroke-linejoin:round;stroke-miterlimit:2;">
    <g transform="matrix(0.496656,0,0,0.490273,0.44041,0.628757)">
        <path d="M63.593,0.163C98.781,0.163 127.349,28.757 127.349,63.976C127.349,99.196 98.781,127.79 63.593,127.79C28.405,127.79 -0.163,99.196 -0.163,63.976C-0.163,28.757 28.405,0.163 63.593,0.163ZM63.593,12.785C91.82,12.785 114.738,35.723 114.738,63.976C114.738,92.23 91.82,115.167 63.593,115.167C35.365,115.167 12.448,92.23 12.448,63.976C12.448,35.723 35.365,12.785 63.593,12.785Z" style="fill:rgb(153,153,153);"/>
    </g>
    <g transform="matrix(0.273705,0,0,0.273705,-234.836,-57.1184)">
        <circle cx="900.322" cy="280.786" r="3.556" style="fill:rgb(153,153,153);"/>
    </g>
    <g transform="matrix(0.273705,0,0,0.273705,-231.82,-55.8958)">
        <circle cx="900.322" cy="280.786" r="3.556" style="fill:rgb(153,153,153);"/>
    </g>
    <g transform="matrix(0.273705,0,0,0.273705,-228.723,-56.3848)">
        <circle cx="900.322" cy="280.786" r="3.556" style="fill:rgb(153,153,153);"/>
    </g>
    <g transform="matrix(0.273705,0,0,0.273705,-225.951,-57.9334)">
        <circle cx="900.322" cy="280.786" r="3.556" style="fill:rgb(153,153,153);"/>
    </g>
    <g transform="matrix(0.273705,0,0,0.273705,-223.343,-59.7265)">
        <circle cx="900.322" cy="280.786" r="3.556" style="fill:rgb(153,153,153);"/>
    </g>
    <g transform="matrix(0.273705,0,0,0.273705,-220.735,-61.1121)">
        <circle cx="900.322" cy="280.786" r="3.556" style="fill:rgb(153,153,153);"/>
    </g>
    <g transform="matrix(0.273705,0,0,0.273705,-217.801,-61.9272)">
        <circle cx="900.322" cy="280.786" r="3.556" style="fill:rgb(153,153,153);"/>
    </g>
    <g transform="matrix(0.273705,0,0,0.273705,-214.785,-61.7642)">
        <circle cx="900.322" cy="280.786" r="3.556" style="fill:rgb(153,153,153);"/>
    </g>
    <g transform="matrix(0.273705,0,0,0.273705,-211.525,-61.1936)">
        <circle cx="900.322" cy="280.786" r="3.556" style="fill:rgb(153,153,153);"/>
    </g>
    <g transform="matrix(0.273705,0,0,0.273705,-208.428,-60.0526)">
        <circle cx="900.322" cy="280.786" r="3.556" style="fill:rgb(153,153,153);"/>
    </g>
    <g transform="matrix(0.273705,0,0,0.273705,-205.738,-58.5855)">
        <circle cx="900.322" cy="280.786" r="3.556" style="fill:rgb(153,153,153);"/>
    </g>
    <g transform="matrix(0.273705,0,0,0.273705,-202.967,-57.5259)">
        <circle cx="900.322" cy="280.786" r="3.556" style="fill:rgb(153,153,153);"/>
    </g>
    <g transform="matrix(0.273705,0,0,0.273705,-200.196,-57.0369)">
        <circle cx="900.322" cy="280.786" r="3.556" style="fill:rgb(153,153,153);"/>
    </g>
    <g transform="matrix(0.273705,0,0,0.273705,-197.017,-57.1184)">
        <circle cx="900.322" cy="280.786" r="3.556" style="fill:rgb(153,153,153);"/>
    </g>
    <g transform="matrix(0.273705,0,0,0.273705,-194.246,-58.1779)">
        <circle cx="900.322" cy="280.786" r="3.556" style="fill:rgb(153,153,153);"/>
    </g>
    <g transform="matrix(0.288892,0,0,0.288892,2.71738,22.8175)">
        <g transform="matrix(70.9319,0,0,70.9319,27.8473,82.192)">
            <path d="M0.108,-0.763L0.388,-0.763C0.47,-0.763 0.541,-0.754 0.601,-0.737C0.661,-0.719 0.711,-0.694 0.751,-0.661C0.79,-0.629 0.82,-0.589 0.839,-0.542C0.858,-0.496 0.868,-0.443 0.868,-0.385C0.868,-0.329 0.859,-0.278 0.839,-0.231C0.82,-0.184 0.791,-0.143 0.751,-0.109C0.712,-0.075 0.662,-0.048 0.602,-0.029C0.542,-0.009 0.471,0 0.389,0L0.108,0L0.108,-0.763ZM0.426,-0.134C0.472,-0.134 0.513,-0.14 0.548,-0.152C0.583,-0.163 0.612,-0.18 0.635,-0.202C0.658,-0.224 0.676,-0.25 0.688,-0.281C0.699,-0.312 0.705,-0.347 0.705,-0.385C0.705,-0.422 0.699,-0.456 0.688,-0.486C0.676,-0.516 0.658,-0.542 0.635,-0.563C0.612,-0.584 0.583,-0.6 0.548,-0.611C0.513,-0.623 0.472,-0.628 0.426,-0.628L0.263,-0.628L0.263,-0.134L0.426,-0.134Z" style="fill:rgb(170,170,170);fill-rule:nonzero;"/>
        </g>
        <g transform="matrix(70.9319,0,0,70.9319,92.7528,82.192)">
            <path d="M0.01,-0.763L0.179,-0.763L0.386,-0.271L0.434,-0.151L0.471,-0.271L0.547,-0.45L0.41,-0.763L0.569,-0.763L0.625,-0.614L0.678,-0.763L0.837,-0.763L0.7,-0.45L0.777,-0.267L0.824,-0.151L0.86,-0.269L1.068,-0.763L1.237,-0.763L0.9,0L0.747,0L0.679,-0.151L0.624,-0.298L0.569,-0.151L0.5,0L0.347,0L0.01,-0.763Z" style="fill:rgb(170,170,170);fill-rule:nonzero;"/>
        </g>
    </g>
</svg>
